<svg width="27" height="35" viewBox="0 0 27 35" fill="none" xmlns="http://www.w3.org/2000/svg">
<path d="M26.2196 13.9891C26.7666 10.3328 23.9827 8.3672 20.1761 7.05596L21.4109 2.10296L18.396 1.3516L17.1938 6.17407C16.4012 5.97657 15.5872 5.79023 14.7783 5.60561L15.989 0.751365L12.9759 0L11.7402 4.95128C11.0841 4.80186 10.4401 4.65417 9.81497 4.49874L9.8184 4.48329L5.66056 3.44511L4.85854 6.66525C4.85854 6.66525 7.09546 7.17789 7.04823 7.20966C8.2693 7.5145 8.48999 8.32254 8.45306 8.96313L7.04651 14.6057C7.13066 14.6271 7.23972 14.658 7.35994 14.7061C7.25947 14.6812 7.15213 14.6538 7.04136 14.6271L5.06978 22.5315C4.92036 22.9024 4.54168 23.4589 3.68813 23.2476C3.71818 23.2914 1.49672 22.7007 1.49672 22.7007L0 26.1518L3.92341 27.1298C4.65331 27.3127 5.36861 27.5042 6.07274 27.6846L4.82505 32.6942L7.83652 33.4456L9.07219 28.4892C9.89483 28.7124 10.6934 28.9185 11.4748 29.1126L10.2435 34.0458L13.2584 34.7972L14.5061 29.797C19.6471 30.7699 23.513 30.3775 25.1402 25.7276C26.4515 21.9836 25.075 19.824 22.3701 18.4157C24.3399 17.9615 25.8238 16.6657 26.2196 13.9891ZM19.3311 23.6487C18.3994 27.3926 12.0957 25.3686 10.052 24.8611L11.7075 18.2242C13.7513 18.7343 20.3049 19.7441 19.3311 23.6487ZM20.2637 13.935C19.4135 17.3406 14.1669 15.6103 12.4649 15.1861L13.9659 9.16665C15.6679 9.59085 21.149 10.3826 20.2637 13.935Z" fill="black"/>
</svg>
