<svg width="235" height="215" viewBox="0 0 235 215" fill="none" xmlns="http://www.w3.org/2000/svg">
<path d="M136.047 97.6351C136.047 102.64 134.097 107.344 130.557 110.884C127.019 114.423 122.316 116.373 117.309 116.373C112.304 116.373 107.599 114.424 104.06 110.884C100.52 107.346 98.5707 102.642 98.5707 97.6351C98.5707 92.6265 100.52 87.9224 104.06 84.3863C107.6 80.845 112.304 78.897 117.309 78.897C122.314 78.897 127.018 80.8465 130.556 84.3863C134.09 87.9243 136.047 92.6299 136.047 97.6351ZM102.297 97.6351C102.297 101.644 103.859 105.415 106.696 108.249C109.532 111.084 113.298 112.647 117.307 112.647C121.316 112.647 125.087 111.085 127.921 108.247C130.756 105.411 132.321 101.642 132.321 97.6334C132.321 93.6246 130.759 89.8535 127.921 87.0192C125.085 84.1848 121.316 82.6196 117.307 82.6196C113.295 82.6196 109.527 84.1815 106.689 87.0192C103.853 89.857 102.297 93.6246 102.297 97.6351Z" fill="#4FC0BA"/>
<path d="M175.491 97.6351C175.491 113.179 169.438 127.79 158.451 138.777L155.816 136.142C166.103 125.856 171.766 112.181 171.766 97.6331C171.766 83.0852 166.103 69.4107 155.816 59.124C145.528 48.8377 131.854 43.1721 117.307 43.1721C102.761 43.1738 89.0847 48.8377 78.7997 59.124C68.5134 69.4102 62.8495 83.0852 62.8478 97.6331C62.8478 112.176 68.5134 125.854 78.7997 136.142L76.1649 138.777C65.1748 127.787 59.1221 113.174 59.1221 97.6351C59.1221 82.0924 65.1752 67.4798 76.1649 56.493C87.155 45.5029 101.764 39.4532 117.307 39.4502C132.851 39.4502 147.462 45.5033 158.452 56.493C169.439 67.4797 175.491 82.089 175.491 97.6351L175.491 97.6351Z" fill="#4FC0BA"/>
<path d="M155.75 97.6351C155.75 107.484 152.002 117.336 144.505 124.833C129.506 139.829 105.107 139.829 90.1103 124.833C75.1148 109.838 75.1148 85.4344 90.1103 70.438L92.7451 73.0728C79.2017 86.6179 79.2017 108.654 92.7451 122.2C106.289 135.744 128.327 135.744 141.873 122.2C155.413 108.66 155.416 86.6188 141.873 73.0728L144.507 70.438C152.003 77.9334 155.75 87.7853 155.75 97.6343L155.75 97.6351Z" fill="#4FC0BA"/>
<path d="M195.181 97.6351C195.181 117.586 187.588 137.538 172.401 152.728C142.024 183.105 92.5971 183.105 62.2187 152.728C31.842 122.352 31.842 72.9201 62.2187 42.5459L64.8535 45.1807C35.9305 74.1071 35.9305 121.169 64.8535 150.096C93.7799 179.022 140.842 179.022 169.769 150.096C198.691 121.175 198.691 74.1114 169.769 45.1807L172.403 42.5459C187.59 57.7292 195.183 77.6834 195.183 97.6351L195.181 97.6351Z" fill="#4FC0BA"/>
<path d="M214.935 97.635C214.935 123.717 204.78 148.236 186.342 166.67L183.707 164.035C201.442 146.302 211.208 122.718 211.208 97.6318C211.208 72.5451 201.44 48.9599 183.707 31.2285C165.971 13.4903 142.39 3.72099 117.304 3.72268C92.2184 3.72268 68.6361 13.4916 50.9005 31.2251C33.1622 48.9633 23.3947 72.5434 23.3947 97.6284C23.3947 122.713 33.1635 146.296 50.9005 164.032L48.2657 166.667C29.827 148.231 19.6706 123.709 19.6706 97.6316C19.6706 71.5515 29.8274 47.0349 48.2691 28.5967C66.7044 10.1563 91.2221 -9.46804e-05 117.304 -9.58204e-05C143.386 -0.00176017 167.905 10.155 186.343 28.595C204.778 47.032 214.934 71.5523 214.934 97.6342L214.935 97.635Z" fill="#4FC0BA"/>
<path d="M234.613 97.6351C234.613 127.691 223.174 157.745 200.294 180.624C178.127 202.791 148.654 215 117.304 215C85.9564 214.998 56.4837 202.791 34.3194 180.624C-11.4398 134.865 -11.4398 60.4094 34.3194 14.6501L36.9542 17.2849C15.4883 38.7474 3.66657 67.2812 3.66657 97.6383C3.66657 127.992 15.4884 156.53 36.9525 177.992C58.4133 199.456 86.9488 211.274 117.306 211.278C147.663 211.278 176.198 199.456 197.664 177.995C219.124 156.534 230.944 127.999 230.944 97.6417C230.944 67.2846 219.123 38.7499 197.664 17.2883L200.298 14.6535C223.177 37.5349 234.616 67.5837 234.616 97.6428L234.613 97.6351Z" fill="#4FC0BA"/>
</svg>
