<svg width="37" height="25" viewBox="0 0 37 25" fill="none" xmlns="http://www.w3.org/2000/svg">
<path d="M11.7167 0.78334C5.26072 0.78334 0 6.04406 0 12.5C0 18.9559 5.26072 24.2167 11.7167 24.2167C14.6078 24.2167 17.2531 23.1553 19.2997 21.4104C21.1459 22.7804 23.4241 23.6 25.9 23.6C32.0309 23.6 37 18.6309 37 12.5C37 6.36911 32.0309 1.40001 25.9 1.40001C23.4241 1.40001 21.1459 2.21963 19.2997 3.58966C17.2531 1.84476 14.6078 0.78334 11.7167 0.78334ZM11.7167 3.25001C13.9045 3.25001 15.9075 4.00692 17.4883 5.26863C15.8161 7.21179 14.8 9.73495 14.8 12.5C14.8 15.2651 15.8161 17.7882 17.4883 19.7314C15.9075 20.9931 13.9045 21.75 11.7167 21.75C6.59408 21.75 2.46667 17.6226 2.46667 12.5C2.46667 7.37742 6.59408 3.25001 11.7167 3.25001Z" fill="black"/>
</svg>
