<svg width="40" height="35" viewBox="0 0 40 35" fill="none" xmlns="http://www.w3.org/2000/svg">
<path d="M30.1254 10.5958C29.3982 10.1803 28.4633 10.1803 27.6322 10.5958L21.8149 14.0239L17.8675 16.2054L12.154 19.6334C11.4269 20.049 10.4919 20.049 9.6609 19.6334L5.19403 16.9325C4.46687 16.517 3.94746 15.686 3.94746 14.751V9.55701C3.94746 8.72597 4.36299 7.89492 5.19403 7.37552L9.6609 4.77851C10.3881 4.36298 11.323 4.36298 12.154 4.77851L16.6209 7.4794C17.3481 7.89492 17.8675 8.72597 17.8675 9.66089V13.089L21.8149 10.8036V7.27164C21.8149 6.44059 21.3994 5.60955 20.5684 5.09015L12.2579 0.20776C11.5307 -0.207762 10.5958 -0.207762 9.76478 0.20776L1.24657 5.19403C0.415522 5.60955 0 6.44059 0 7.27164V17.0364C0 17.8675 0.415522 18.6985 1.24657 19.2179L9.6609 24.1003C10.3881 24.5158 11.323 24.5158 12.154 24.1003L17.8675 20.7761L21.8149 18.4907L27.5284 15.1666C28.2555 14.751 29.1905 14.751 30.0215 15.1666L34.4884 17.7636C35.2155 18.1791 35.7349 19.0101 35.7349 19.9451V25.1391C35.7349 25.9701 35.3194 26.8012 34.4884 27.3206L30.1254 29.9176C29.3982 30.3331 28.4633 30.3331 27.6322 29.9176L23.1654 27.3206C22.4382 26.9051 21.9188 26.074 21.9188 25.1391V21.8149L17.9713 24.1003V27.5284C17.9713 28.3594 18.3869 29.1904 19.2179 29.7098L27.6322 34.5922C28.3594 35.0078 29.2943 35.0078 30.1254 34.5922L38.5397 29.7098C39.2669 29.2943 39.7863 28.4633 39.7863 27.5284V17.6597C39.7863 16.8287 39.3708 15.9976 38.5397 15.4782L30.1254 10.5958Z" fill="black"/>
</svg>
