<svg width="49" height="15" viewBox="0 0 49 15" fill="none" xmlns="http://www.w3.org/2000/svg">
<path d="M35.6201 0.61442C34.4814 0.199933 33.2777 -0.00805874 32.0657 0.000238809C28.1463 0.000238809 25.3782 1.97247 25.3586 4.80359C25.3341 6.88349 27.3256 8.05557 28.8322 8.75051C30.3779 9.46501 30.8948 9.91525 30.8899 10.5539C30.8801 11.5253 29.6552 11.9658 28.5162 11.9658C26.9509 11.9658 26.0959 11.748 24.7805 11.2023L24.293 10.9748L23.7369 14.2341C24.6898 14.6305 26.407 14.9706 28.1806 15C32.3474 15 35.0714 13.04 35.1032 10.0278C35.1375 8.36634 34.0597 7.11105 31.7913 6.07355C30.4122 5.40064 29.5573 4.9504 29.5573 4.26771C29.5573 3.66331 30.2897 3.01732 31.8207 3.01732C32.8397 2.99269 33.8523 3.18366 34.7921 3.57767L35.1596 3.74161L35.7156 0.592398L35.6201 0.61442ZM45.791 0.264508H42.7289C41.776 0.264508 41.0583 0.526331 40.6419 1.47085L34.7529 14.7969H38.9198L39.7526 12.6118L44.8381 12.6167C44.9581 13.1281 45.3256 14.7969 45.3256 14.7969H49L45.791 0.264508ZM19.722 0.142161H23.6928L21.2089 14.6819H17.243L19.722 0.137267V0.142161ZM9.64175 8.1559L10.0533 10.1746L13.9335 0.264508H18.1395L11.8905 14.7773H7.69429L4.26481 2.48878C4.20927 2.28615 4.07882 2.11213 3.89981 2.00184C2.66373 1.36401 1.35402 0.879982 0 0.560587L0.0538918 0.254719H6.44498C7.31215 0.288976 8.0103 0.560587 8.24301 1.48553L9.6393 8.16324L9.64175 8.1559ZM40.8917 9.63875L42.4742 5.57193C42.4546 5.61597 42.8 4.73263 43.0009 4.18696L43.2728 5.44224L44.1914 9.6363H40.8893L40.8917 9.63875Z" fill="black"/>
</svg>
